<?xml version="1.0" encoding="iso-8859-1"?>
<!-- Generator: Adobe Illustrator 19.0.0, SVG Export Plug-In . SVG Version: 6.00 Build 0)  -->
<svg version="1.1" id="Capa_1" xmlns="http://www.w3.org/2000/svg" xmlns:xlink="http://www.w3.org/1999/xlink" x="0px" y="0px"
	 viewBox="0 0 512 512" style="enable-background:new 0 0 512 512;" xml:space="preserve">
<circle style="fill:#281407;" cx="256.69" cy="255.999" r="255.31"/>
<path style="fill:#FF7914;" d="M247.102,289.016c-17.355-4.292-30.223-19.961-30.223-38.642c0-21.988,17.825-39.813,39.813-39.813
	s39.813,17.825,39.813,39.813c0,18.681-12.869,34.35-30.223,38.642v117.29l103.954-185.791
	c-40.918-24.329-75.201-89.578-75.201-120.543H218.35c0,30.965-34.283,96.213-75.201,120.543l103.954,185.791v-117.29H247.102z"/>
<path style="fill:#FFD8BB;" d="M470.591,146.729L270.314,510.945c-4.512,0.24-9.056,0.365-13.62,0.365
	c-7.044,0-14.037-0.281-20.935-0.844L10.327,188.787l-4.721-6.742C1.834,176.658,0,170.457,0,164.298
	c0-8.764,3.71-17.434,10.817-23.52c6.388-5.481,14.256-7.847,21.894-7.409c10.129,0.584,19.872,6.107,25.302,15.85l197.255,354.327
	L456.222,138.82c1.48-2.689,4.283-4.241,7.19-4.241c1.011,0,2.042,0.188,3.032,0.584
	C471.018,136.996,472.957,142.415,470.591,146.729z"/>
<g>
</g>
<g>
</g>
<g>
</g>
<g>
</g>
<g>
</g>
<g>
</g>
<g>
</g>
<g>
</g>
<g>
</g>
<g>
</g>
<g>
</g>
<g>
</g>
<g>
</g>
<g>
</g>
<g>
</g>
</svg>
