<svg xmlns="http://www.w3.org/2000/svg" viewBox="0 0 953.8 503.66"><g id="Layer_2" data-name="Layer 2"><g id="Draw_Layer" data-name="Draw Layer"><path d="M206.73,1.74a61.35,61.35,0,0,0-12.92,8.49,82,82,0,0,0-9.71,9.57,168.85,168.85,0,0,0-18.2,25.94C161.3,53.6,157.27,61.8,153.22,70a367.88,367.88,0,0,0-14.73,34c-.52,1.37-1,2.74-1.52,4.12-10.16,9.5-20.38,18.94-31,28-3.6,3.06-7.24,6.07-11,9-7.89,6.06-16.14,11.92-25.26,16,0,0,0,0,0,0a56.55,56.55,0,0,0,17.18.25,96.91,96.91,0,0,0,21-5.13,132.93,132.93,0,0,0,16.66-7.41c-8,31.08-13.2,62.89-18.92,94.42-2.7,14.87-5.26,29.81-8.8,44.51-1.84,7.63-4,15.16-6.55,22.56-2.24-2.34-4.45-4.71-6.65-7.08-7.48-8.05-14.8-16.51-23.41-23.4a80.69,80.69,0,0,0-7.36-5.39,42.29,42.29,0,0,0-7.6-3.61,28,28,0,0,0-7.73-1.48,12.07,12.07,0,0,0-2.25,0,25.44,25.44,0,0,0-5.32.92,28.84,28.84,0,0,0-4.78,2.06,32.31,32.31,0,0,0-4.5,3.27,31.89,31.89,0,0,0-5.84,6.86,41.27,41.27,0,0,0-3.85,7.06,110.9,110.9,0,0,0-4.57,12.18A143.58,143.58,0,0,0,1.65,324,138.67,138.67,0,0,0,.07,348.36a109.92,109.92,0,0,0,1.38,12.92,52.61,52.61,0,0,0,2.29,9.09,39.12,39.12,0,0,0,4.86,9.85,38.7,38.7,0,0,0,4,4.87,32.14,32.14,0,0,0,5.06,4c6.84,4.49,15.82,4.78,23.47,2.53a48.75,48.75,0,0,0,5-1.85,75.7,75.7,0,0,0,7.73-3.65,83.67,83.67,0,0,0,11.56-7.94c7-5.59,12.82-12.62,17.88-19.94A133.55,133.55,0,0,0,93,341.69q2.31,1.86,4.71,3.65c9.82,7.29,21.29,12.82,33.7,13.26a64.28,64.28,0,0,0,11-.8,48.09,48.09,0,0,0,8-1.78,57.65,57.65,0,0,0,16.59-8.4c11-8,19.44-18.89,26.06-30.68,7.16-12.74,12.5-26.54,17-40.41,2.58-7.93,4.86-15.94,7-24,.53,19.93,2,39.88,4.46,59.65,1.59,12.67,3.67,25.25,6.15,37.77,1.16,5.83,2.52,11.6,3.77,17.41.71,3.3,1.47,6.59,2.17,9.89a15,15,0,0,0,1,5.24c.19,1,.37,2.09.53,3.14a9.84,9.84,0,0,0,2.56,4.38,9.94,9.94,0,0,0,12,1.56c2-1.19,4.17-3.53,4.57-5.94.1-.66.25-1.3.41-1.93l.09-.13a9.89,9.89,0,0,0,1.38-4.15c.2-1.19.41-2.38.58-3.58.46-3.24.7-6.5,1-9.75.44-4.85,1-9.69,1.43-14.54.86-8.84,2-17.67,3.13-26.48,6.35-46.72,17.43-92.69,31.31-137.71,6.77-22,14.29-43.67,22.18-65.24,3.64-9.92,7.31-19.83,11.09-29.7s7.55-19.65,11.63-29.34a300.93,300.93,0,0,1,15.05-31.17c2.94-5.14,6-10.15,9.4-15,3.48-5,7.21-9.9,10.79-14.87,0,0,0,0,0,0C365.13,8.47,358,16.88,351.48,25.38a242.64,242.64,0,0,0-18.17,27.51c-11,19.22-19.23,39.75-28,60C286,157.3,268,202.4,254.56,249c-5.37,18.65-9.84,37.58-13.36,56.67-.93-13.9-1.34-27.84-1.38-41.77,0-12.44.26-24.89.67-37.32.21-6.21.59-12.43.75-18.64s.38-12.4.62-18.6c.16-4.2,0-8.4,0-12.61,0-1,0-2,0-3a42.06,42.06,0,0,0-.67-5.8c-.13-.94-.27-1.87-.4-2.8a8.91,8.91,0,0,0-1.2-3.07l-.33-2.32a8.17,8.17,0,0,0-12-4.89c-1.66,1-3.46,2.91-3.76,4.89-.14.51-.28,1-.41,1.55-.19.26-.39.51-.59.77a11.86,11.86,0,0,0-1.39,3.77c-.36,1.4-.75,2.8-1.07,4.21a36.54,36.54,0,0,0-.62,4.74c-1.65,5.56-3.21,11.15-4.76,16.73-3.71,13.37-7.15,26.8-10.91,40.15-5,17.8-10.5,35.5-17.61,52.59-5,11.66-10.9,23-18.53,33.18a75.73,75.73,0,0,1-11.36,11.63,55.17,55.17,0,0,1-9.57,5.72,47.87,47.87,0,0,1-9.4,2.62,43.23,43.23,0,0,1-8.28.1,39.63,39.63,0,0,1-7.24-2.07,69.26,69.26,0,0,1-12.71-7.71c-2.53-2-5-4.13-7.36-6.31a306.4,306.4,0,0,0,11.24-36.69c5.42-22.37,10-45,15-67.4,6.69-29.61,14.18-59.12,24.74-87.59l1.08-.9a177.16,177.16,0,0,0,18.54-18.42c6.34-7.15,12.3-14.63,18-22.31a207.83,207.83,0,0,0,24-41.22c1.37-3.17,2.69-6.37,3.86-9.62.9-2.53,1.9-5,2.74-7.59,1.48-4.52,3.6-8.9,4.53-13.58a12.92,12.92,0,0,0,0-6.76A12.74,12.74,0,0,0,216.53.46L213.15,0a12.68,12.68,0,0,0-6.42,1.74ZM338.47,63.13l-.16.39.16-.39ZM38,292.41a18.05,18.05,0,0,1,1.81.55,40.24,40.24,0,0,1,6.37,4c8.24,6.6,15.42,14.51,22.72,22.1,4.12,4.27,8.29,8.49,12.59,12.56a125.39,125.39,0,0,1-11.35,18.32A81.61,81.61,0,0,1,57.29,363,57.25,57.25,0,0,1,47,369.26a44.42,44.42,0,0,1-8.41,2.51,32.11,32.11,0,0,1-5,.07,19.28,19.28,0,0,1-2.14-.58c-.59-.3-1.17-.62-1.73-1s-.85-.83-1.25-1.28a25.55,25.55,0,0,1-1.81-3.18,51.42,51.42,0,0,1-2.54-9.77,111.48,111.48,0,0,1,.51-25.88c.72-4.89,1.69-9.71,2.85-14.51A112.3,112.3,0,0,1,32,300.78a42.87,42.87,0,0,1,3.64-6.65,20.39,20.39,0,0,1,1.45-1.49l.33-.2.12,0Z"/><path d="M464,183c-.63.65-1.24,1.32-1.83,2a18,18,0,0,0-3.34,4.46,65.06,65.06,0,0,0-2.76,7.38c-.93,2-1.82,4-2.87,5.88-1.45,2.66-2.68,5.45-4.17,8.08-3.31,5.84-6.31,11.84-9.38,17.81-6.87,13.38-13.21,27-19.72,40.58-5.53,11.49-11.15,22.94-17.31,34.1a231.52,231.52,0,0,1-18,28.47,92.26,92.26,0,0,1-14.38,15,46.1,46.1,0,0,1-8,4.81,34.24,34.24,0,0,1-4.94,1.49,59.37,59.37,0,0,1-1.18-5.82,101.92,101.92,0,0,1,.57-23.8c2.51-17.31,7.58-34.21,12.68-50.9,2.51-8.25,5-16.51,7.3-24.82a158.15,158.15,0,0,0,4.95-24.09,10.7,10.7,0,0,0-.32-2.6c.32-1.84.58-3.69.8-5.55a53,53,0,0,0-.33-14.29,39.91,39.91,0,0,0-4.79-13.66,10,10,0,0,0-3.59-3.59c-2.49-1.46-5-1.49-7.71-1a27.93,27.93,0,0,0-6.31,2.25,46.53,46.53,0,0,0-4.67,2.5,82.08,82.08,0,0,0-12.93,9.78c-9.87,8.81-18.14,19-25.81,29.74a382.26,382.26,0,0,0-22.65,35.91,244.64,244.64,0,0,0-17.54,38,104.07,104.07,0,0,0-4.3,15.69c-.91,4.95-1.65,10.09-1.16,15.13.45,4.73,1.35,9.67,4.07,13.69a22,22,0,0,0,4.46,5.12,33.72,33.72,0,0,0,4.16,3,26.3,26.3,0,0,0,4.88,2,25.48,25.48,0,0,0,15.82-.62,46.36,46.36,0,0,0,15.29-9.82,95.7,95.7,0,0,0,12.52-14.58c.87-1.2,1.71-2.4,2.53-3.63a88.53,88.53,0,0,0,1.07,22.75,54.82,54.82,0,0,0,4,12.27,45.29,45.29,0,0,0,2.2,4.41,12.44,12.44,0,0,0,4.35,4.89A11.66,11.66,0,0,0,352,372.7a47.14,47.14,0,0,0,9.17-1.14,45.5,45.5,0,0,0,8.62-3.11A57.67,57.67,0,0,0,384,358.68a100.92,100.92,0,0,0,13-14.52A178.58,178.58,0,0,0,408,327.6c7.72-12.81,14.3-26.3,20.66-39.82,6.54-13.88,12.74-27.92,19.25-41.81q1.41-3,2.86-6c-1.08,5.09-2.23,10.15-3.39,15.22S445,265.6,443.66,270.8c-1,2.06-2,4.12-3,6.19-11.23,23.61-20.63,48.29-26.37,73.83a11.9,11.9,0,0,0,14.64,14.63c2.71-.74,5.9-2.8,7.11-5.47,1-2.32,2.07-4.64,2.89-7.05.28-.82.55-1.64.82-2.47a16.58,16.58,0,0,0,.73-3.67c.21-.69.48-1.37.72-2.05.31-.91.61-1.84.95-2.74,1.05-2.45,2.07-4.91,3.08-7.37q7-16.14,13-32.67c2.59-7.28,5-14.65,7.18-22.07,7.32-15.49,15.77-30.51,26.13-44.15a113.31,113.31,0,0,1,17.3-18.06c.23,1,.43,2,.6,3a89.65,89.65,0,0,1-.62,20.31c-1.93,13.48-5.29,26.71-8.09,40-1.56,7.43-2.88,14.88-3.81,22.42a75.54,75.54,0,0,0-.5,17.26,50.41,50.41,0,0,0,1.83,10,37,37,0,0,0,3.87,8.58,28.81,28.81,0,0,0,5.91,6.92,37.32,37.32,0,0,0,4.68,3.41,42.89,42.89,0,0,0,5.69,2.6,38.63,38.63,0,0,0,9.86,2.16,27.65,27.65,0,0,0,7,0,43.27,43.27,0,0,0,9.36-2,52.69,52.69,0,0,0,8.85-4.12,70,70,0,0,0,14.45-11.75,133.76,133.76,0,0,0,13.16-16.37c7.76-11.08,14.22-23.06,20.24-35.16-2.38,8.14-4.53,16.35-6.23,24.68-1.12,5.5-2,11-3,16.56-.46,2.62-1,5.2-1.65,7.79A60.46,60.46,0,0,0,589,345c0,.44-.05.89-.07,1.34a11.53,11.53,0,0,0,3.45,8.3,11.73,11.73,0,0,0,11.42,3,37.28,37.28,0,0,0,12.17-4.23,50.33,50.33,0,0,0,10.53-7.76,64.14,64.14,0,0,0,8.66-10.3,82.84,82.84,0,0,0,6.31-10.71,129.35,129.35,0,0,0,5.3-12.56c1.47-3.91,2.75-7.89,3.93-11.89,1.08-3.69,2.09-7.39,3.08-11.1.94-3.49,2-6.95,3.09-10.42a0,0,0,0,0,0,0c-2.15,2.81-4.18,5.73-6.34,8.53l.29-.37c-5.67,7.32-11.38,14.62-17.44,21.63a147.83,147.83,0,0,1-19,18.89c-.61.45-1.23.89-1.85,1.32,0-.39.08-.78.13-1.17.38-2.35,1-4.69,1.52-7,.62-2.63,1.31-5.23,2.06-7.83,1.57-5.45,3.39-10.81,5.22-16.18,3.67-10.8,7.84-21.41,11.69-32.15,3.78-10.53,7.36-21.15,10.11-32a158.52,158.52,0,0,0,3.14-16,116.17,116.17,0,0,0,1.54-19,13.13,13.13,0,0,0-16.62-12.66l-3.13,1.32a13.28,13.28,0,0,0-4.71,4.71,55.19,55.19,0,0,0-3.36,5,20.51,20.51,0,0,0-2.48,6,33.64,33.64,0,0,0-.72,6.06c-.36,1.25-.73,2.55-1.18,3.79-1,2.28-2,4.57-3,6.86-1.25,2.92-2.76,5.76-4.12,8.63-3,6.27-5.91,12.55-8.9,18.82-6.41,13.37-12.92,26.72-20.17,39.66a229.5,229.5,0,0,1-17,26.54,93.6,93.6,0,0,1-14.38,15,47.53,47.53,0,0,1-7.92,4.76,32.61,32.61,0,0,1-5.32,1.51,17.36,17.36,0,0,1-9-1.2,21.3,21.3,0,0,1-2.28-1.3c-.51-.47-1-1-1.46-1.46a21.79,21.79,0,0,1-1.21-2.09,32,32,0,0,1-1.3-5.19,77.24,77.24,0,0,1,.52-17.12c1.9-13.19,5.16-26.13,7.83-39.18,1.58-7.68,2.9-15.39,3.88-23.17a95.8,95.8,0,0,0,.73-18.77,56.12,56.12,0,0,0-2.84-15.31,42.39,42.39,0,0,0-8.65-14.52c-3.34-3.64-9.31-4.21-13.47-1.74a106.19,106.19,0,0,0-11,7.92c-3.12,2.43-6.08,5.1-8.95,7.8-2.2,2.07-4.3,4.23-6.34,6.45,1-5.2,1.9-10.41,2.53-15.65q.44-3.54.82-7.08a11.91,11.91,0,0,0-1.65-6.1,12,12,0,0,0-10.46-6A11.82,11.82,0,0,0,464,183ZM352.11,219.93a146.49,146.49,0,0,1,13-13.62c.68,1.3,1.31,2.63,1.91,4,.42,1.05.83,2.11,1.22,3.17a10.6,10.6,0,0,0-2.53,1.06,11.21,11.21,0,0,0-4.84,6.3c-1.61,4.32-3.09,8.67-4.77,13q-3.75,9.6-7.75,19.1c-5.19,12.23-10.72,24.32-16.82,36.12a238.3,238.3,0,0,1-20.71,34,67.86,67.86,0,0,1-9.7,10.2,32,32,0,0,1-4.7,2.83,19.36,19.36,0,0,1-2.1.61c-.43,0-.86,0-1.3,0A21,21,0,0,1,291,336a14.17,14.17,0,0,1-1.27-.7l-.12-.13c-.2-.31-.39-.64-.56-1a16.27,16.27,0,0,1-.5-1.78,35.9,35.9,0,0,1,.15-6.39A90.57,90.57,0,0,1,294.79,306a256.1,256.1,0,0,1,16.48-31.38,351.62,351.62,0,0,1,21.43-31.2c6.24-8,12.78-15.8,19.41-23.48Zm156.45,22.5-.06.42.06-.42Z"/><path d="M791,22.17a14.11,14.11,0,0,0-3,.79,38.49,38.49,0,0,0-5.29,2.37,41.45,41.45,0,0,0-5.1,3.64,43,43,0,0,0-5.8,5.49A110.5,110.5,0,0,0,759,52.54c-8.34,14.25-14.79,29.61-20.76,45Q731,116.18,725,135.33a375.37,375.37,0,0,0-11.09,46.95c-2.77,15.62-4.8,31.34-6.46,47.11A77.48,77.48,0,0,0,704,239.6a0,0,0,0,0,0,0c.88-.78,1.78-1.53,2.69-2.27-1.18,12-2.17,24-3.15,35.92-1,12.3-2,24.59-3.22,36.87L691.63,315q-20.24,11.37-40.31,23t-39.62,24c-4.29,2.72-8.52,5.52-12.86,8.15-3.48,2.11-7,4.18-10.43,6.31a250.75,250.75,0,0,0-26.35,18.32,91,91,0,0,0-10.66,9.92,49.63,49.63,0,0,0-8.41,12,31.11,31.11,0,0,0-3.37,15.39,43.69,43.69,0,0,0,3,14.5c4.08,10.53,10.91,19.62,18.79,27.63a129,129,0,0,0,13.46,11.56,105.75,105.75,0,0,0,12.62,8.32A96.83,96.83,0,0,0,602,500.77a52.25,52.25,0,0,0,13.55,2.77,56.17,56.17,0,0,0,16.09-1.42,55.44,55.44,0,0,0,14.21-5.44A58.11,58.11,0,0,0,657.59,488a75.59,75.59,0,0,0,9.54-11.21c5.65-7.86,9.75-16.76,13.31-25.72,3.46-8.73,6.19-17.69,8.86-26.69,3.12-10.52,6-21.13,8.69-31.78,3.62-14.6,6.44-29.42,8.9-44.25,1.51-9.15,2.87-18.32,4.14-27.5l.08-.05c9.32-5.79,18.53-11.84,28.19-17.05,7.43-4,15-7.72,22.57-11.48,8.94-4.44,18-8.73,26.83-13.3,7.42-3.82,14.81-7.74,22.06-11.9a93.44,93.44,0,0,1,11.13,7,69.46,69.46,0,0,1,10.31,10.19,61.69,61.69,0,0,1,6.34,10.81A68,68,0,0,1,842.16,308c-5.5.59-11,1.38-16.38,2.43a326.89,326.89,0,0,0-32,7.84,206,206,0,0,0-41,16.92,134.85,134.85,0,0,0-17.9,12.16,81.84,81.84,0,0,0-13.2,12.91,10.73,10.73,0,0,0-2.76,4.74,10.78,10.78,0,0,0,2.76,10.47,10.73,10.73,0,0,0,4.74,2.76c7.72,2.68,15.91,3.57,24,3.95a153.93,153.93,0,0,0,25.93-1c19-2.29,38-7.3,54.6-17a88.2,88.2,0,0,0,11.47-8.1,54.08,54.08,0,0,0,8-8.07,50.13,50.13,0,0,0,6.88-10.75,44.35,44.35,0,0,0,3.73-12.17c.15-1,.27-2.09.36-3.13q6.65-1.59,13.28-3.22c9.65-2.37,19.31-4.77,29-6.88,5.22-1.13,10.49-1.9,15.76-2.73,0,0,0,0,0,0-4.47-.25-9-.33-13.43-.66-4.83-.35-9.66-.77-14.5-1.06-10.09-.59-20.21-1-30.31-.66a80.57,80.57,0,0,0-2.35-12.82,68.49,68.49,0,0,0-13.32-25.59,76.19,76.19,0,0,0-14.66-13.92c4.56-3.13,8.84-6.6,13.18-10,1.91-1.51,3.75-3.11,5.52-4.78s3.3-3,4.84-4.67a43.21,43.21,0,0,0,8.19-13.41,8.44,8.44,0,0,0,0-4.46,9,9,0,0,0-3.86-5,54.86,54.86,0,0,0-13.16-6.61A70.84,70.84,0,0,0,830.41,202c-10-1.35-20.3-.78-30.29.54a300.17,300.17,0,0,0-33.62,6.57c-5.06,1.28-10.14,2.53-15.19,3.83-2.3.6-4.63,1.1-6.95,1.64-1.61.37-3.24.74-4.87,1.05a20.56,20.56,0,0,0-4.81.65l-2.63.73a284.11,284.11,0,0,0,25.72-25,273.5,273.5,0,0,0,17.82-22.06c5.06-6.94,9.7-14.23,14.28-21.5,8.69-13.78,16.86-28,23.4-42.93a182,182,0,0,0,7.31-19,105.52,105.52,0,0,0,3.78-17.76,52,52,0,0,0,.16-13.48A71.55,71.55,0,0,0,823,46.81a40,40,0,0,0-2.76-7.26c-.46-1.09-1-2.16-1.51-3.2a38.16,38.16,0,0,0-3.59-5.05,17.31,17.31,0,0,0-2.47-2.52,46.11,46.11,0,0,0-5.13-3.89,23.32,23.32,0,0,0-10.91-3.23q-.4,0-.81,0a35.25,35.25,0,0,0-4.74.54Zm4.7,22.37.12,0a22.07,22.07,0,0,1,2.35,1.48,36.17,36.17,0,0,1,4.28,4,15.81,15.81,0,0,1,1,1.81,22.8,22.8,0,0,1,.94,3.54,40.15,40.15,0,0,1-.07,8,86.24,86.24,0,0,1-5.56,18.78,222.28,222.28,0,0,1-17.33,31.46c-7.65,11.9-16,23.34-24.66,34.53l1.59-2c-5.65,7.33-11.22,14.69-16.51,22.29q-5.6,8-10.83,16.33,2.69-12.21,6-24.28c2.77-10,6.15-19.7,9.76-29.4q4.26-11.44,9-22.72c4.18-9.82,8.64-19.53,13.56-29a176,176,0,0,1,15.13-24.81,56.11,56.11,0,0,1,7.58-8,25.61,25.61,0,0,1,2.86-1.77l.8-.23Zm37.51,176.14a58.45,58.45,0,0,1,10.69,2.66c-.37.67-.75,1.34-1.15,2-1,1.67-1.95,3.38-3.08,5a61.74,61.74,0,0,1-6,6.53c-2.43,2.23-5,4.34-7.58,6.37-1.9,1.45-3.84,2.84-5.81,4.19A162.88,162.88,0,0,0,801,238.21a251.2,251.2,0,0,0-28.74-9.52l1.69-.47a253.24,253.24,0,0,1,32-7,114.23,114.23,0,0,1,27.34-.56ZM721.42,239.9a12.7,12.7,0,0,0,4.69,2.53c5.75,1.68,11.62,2.95,17.46,4.27,6.56,1.47,13.15,2.88,19.7,4.39A264.93,264.93,0,0,1,797.69,261c-7.64,4.15-15.44,8-23.28,11.75C765.7,277,756.91,281,748.12,285c-7.06,3.22-14.13,6.44-21,10.06-4.64,2.45-9.16,5.12-13.72,7.71,2.3-18.07,4.41-36.17,6.81-54.21q.59-4.34,1.2-8.66Zm-1,7.28-.09.67.09-.67ZM811,334.1c10.08-2.85,20.32-5,30.52-7.42-.18.54-.36,1.06-.56,1.59a41.82,41.82,0,0,1-4,6.79,55.08,55.08,0,0,1-8.08,7.93,87.5,87.5,0,0,1-17.05,9.69,138.75,138.75,0,0,1-32.49,8.61,129.62,129.62,0,0,1-28.73.6l.49-.4a150.15,150.15,0,0,1,30.78-17.41,266.88,266.88,0,0,1,29.14-10ZM604.8,389.26c9.41-6.1,18.56-12.58,27.89-18.79,21.58-14.35,43.56-28.09,65.58-41.76q-.43,3.6-.91,7.2c-2.93,21.61-6.72,43.23-12.86,64.2a375.15,375.15,0,0,1-13.14,38.67A122.77,122.77,0,0,1,657,464.26a70.64,70.64,0,0,1-10.68,10.91,53,53,0,0,1-9.48,5.56,48.52,48.52,0,0,1-9.53,2.59,53.44,53.44,0,0,1-10.58.12,48,48,0,0,1-9.23-2.76,97.35,97.35,0,0,1-18.69-11.27A111.53,111.53,0,0,1,571.19,452a72.36,72.36,0,0,1-7.8-13,38.79,38.79,0,0,1-1.92-6.67,27.64,27.64,0,0,1-.05-3.64,23.19,23.19,0,0,1,.74-2.59,39.31,39.31,0,0,1,3.56-5.81,103,103,0,0,1,16.49-15.56c7.28-5.53,14.92-10.57,22.59-15.53Zm92.48-52.75-.06.48.06-.48Z"/><path d="M937.4,354.78h0a1.51,1.51,0,0,0-.21.23,5.47,5.47,0,0,0-.56.51,2.06,2.06,0,0,0-.58.77,8.76,8.76,0,0,0-.64,2.1,5.48,5.48,0,0,0-.6,1.32,4.44,4.44,0,0,0-.18,1.75,5.81,5.81,0,0,0,.07.83,3.11,3.11,0,0,0,2.29,3.5,4.83,4.83,0,0,0,2.57.75,4.9,4.9,0,0,0,4.53-3.19h0l-.28.67-.68.88a27.08,27.08,0,0,0,2.34-2.44,4.19,4.19,0,0,0,.41-.82,4.54,4.54,0,0,0-.61-5.55,4.16,4.16,0,0,0-2.22-1.19,4.41,4.41,0,0,0-1.19-.35,3.14,3.14,0,0,0-2.08-.78,3.36,3.36,0,0,0-2.38,1Z"/><path d="M938.61,351.12a13.16,13.16,0,0,0-3.08.17,10.67,10.67,0,0,0-8.45,13.4,14.73,14.73,0,0,0,4.58,6.89,13.33,13.33,0,0,0,3,2.05,14.87,14.87,0,0,0,5.08,1.38,11.58,11.58,0,0,0,6.55-1.51,14.28,14.28,0,0,0,4.8-4.54,15.45,15.45,0,0,0,2.71-9.37c-.17-3.68-1.6-7.26-4.81-9.29a7.79,7.79,0,0,0-4.24-1.25,11.49,11.49,0,0,0-6.13,2.07Zm2.13,4.42a10.39,10.39,0,0,1,1.35.38c.17.09.34.18.51.29l.09.09v0c0,.14,0,.28,0,.42a9.4,9.4,0,0,1-.33,1.15,13.7,13.7,0,0,1-1,1.65,12.67,12.67,0,0,1-1,1l-.47.28h0l-.23-.06c-.49-.27-1-.57-1.44-.89l-.52-.49v-.11c.06-.25.13-.49.21-.73a11.13,11.13,0,0,1,.77-1.28,9.48,9.48,0,0,1,1.18-1.19,7.19,7.19,0,0,1,.83-.52Zm2.35.2h0l0,0Z"/></g></g></svg>